<?xml version="1.0" encoding="utf-8"?>
<svg viewBox="0 0 40 40" xmlns="http://www.w3.org/2000/svg">
  <defs>
    <filter id="filter-8">
      <feGaussianBlur stdDeviation="10.09393"/>
    </filter>
    <filter id="filter-7">
      <feGaussianBlur stdDeviation="3.95909"/>
    </filter>
  </defs>
  <rect x="-0.007" y="-0.3" width="40.246" height="40.417" style="fill: rgb(61, 61, 61); visibility: hidden;"/>
  <g transform="matrix(0.065927, 0, 0, 0.065927, 1.994328, 2.092881)">
    <g transform="matrix(1, 0, 0, 1, -165.491714, -174.360001)" style="">
      <path transform="matrix(.95883 0 0 1.0046 28.865 22.524)" d="m417.44 175.31c-2.4076 18.121-17.911 32.125-36.688 32.125-17.823 1e-5 -32.724-12.598-36.25-29.375-13.059 2.8118-25.653 6.8501-37.688 11.969 6.5954 16.77 0.1373 36.313-15.938 45.594-14.925 8.6172-33.388 5.6812-44.938-6.0625-8.1 7.5312-15.638 15.691-22.469 24.406 14.381 11.169 18.672 31.538 9.3125 47.75-8.9272 15.462-27.34 22.073-43.656 16.688-3.9103 12.02-6.7791 24.515-8.4688 37.375 18.742 1.8253 33.406 17.624 33.406 36.844 1e-5 18.105-13.012 33.161-30.188 36.375 1.278 5.759 2.7594 11.429 4.5 17 3.3596-0.88443 6.7951-1.2953 10.188-1.2188 12.508 0.28213 24.573 6.9121 31.281 18.531 9.1309 15.815 5.2637 35.579-8.2812 46.906 7.5576 9.9478 15.979 19.208 25.156 27.656 6.9784-8.4532 17.228-13.199 27.781-13.438 6.5516-0.14778 13.195 1.4549 19.281 4.9688 16.875 9.743 23.171 30.78 14.875 48.062 11.475 4.7507 23.452 8.5195 35.844 11.188 3.5263-16.777 18.427-29.375 36.25-29.375 18.777-3e-5 34.28 14.004 36.688 32.125 11.22-1.5295 22.165-3.9251 32.75-7.1562-5.5376-16.378 1.0517-34.933 16.594-43.906 5.5329-3.1944 11.561-4.7835 17.531-4.9375 12.004-0.3097 23.785 5.2531 31.094 15.5 10.674-8.0782 20.554-17.162 29.5-27.094-12.831-11.436-16.335-30.691-7.4062-46.156 6.7083-11.619 18.774-18.249 31.281-18.531 4.9894-0.11254 10.057 0.79237 14.875 2.7812 4.3232-10.704 7.7884-21.851 10.312-33.344-16.098-4.0234-28.031-18.597-28.031-35.938 3e-5 -18.442 13.506-33.741 31.156-36.562-2.4486-18.837-7.3968-36.882-14.5-53.812-17.277 8.2777-38.293 1.9922-48.031-14.875-9.1042-15.769-5.2665-35.469 8.1875-46.812-8.0768-8.6995-16.877-16.737-26.312-23.969-11.356 13.373-30.989 17.175-46.719 8.0938-14.783-8.5352-21.462-25.745-17.312-41.5-11.275-3.58-22.96-6.2382-34.969-7.875zm-28.562 133.75c1.2814 0 2.5469 0.02953 3.8125 0.09375 5.0622 0.25708 10.004 1.0271 14.75 2.25 1.1865 0.3055 2.3684 0.63807 3.5312 1 2.3256 0.72436 4.591 1.5592 6.8125 2.5 1.1108 0.47009 2.2003 0.9754 3.2812 1.5 0.54047 0.2623 1.092 0.53738 1.625 0.8125 0.0745 0.03819 0.1444 0.08656 0.21875 0.125 0.725 0.37479 1.4454 0.75853 2.1562 1.1562 0.78266 0.43999 1.5467 0.87827 2.3125 1.3438 2.042 1.242 4.0307 2.5728 5.9375 4 0.7151 0.5349 1.4291 1.0967 2.125 1.6562 0.42748 0.34454 0.86163 0.67751 1.2812 1.0312 0.56656 0.47632 1.1043 0.97606 1.6562 1.4688 1.0345 0.92341 2.0519 1.8644 3.0312 2.8438 0.63022 0.63058 1.2368 1.2848 1.8438 1.9375l0.03125 0.03125c0.28068 0.30218 0.56813 0.59944 0.84375 0.90625 0.70735 0.78739 1.3891 1.5891 2.0625 2.4062l0.5625 0.6875c0.56135 0.69675 1.1199 1.4079 1.6562 2.125 0.66839 0.89519 1.3091 1.793 1.9375 2.7188 0.8779 1.2932 1.7339 2.6189 2.5312 3.9688 0.45439 0.76858 0.88533 1.5577 1.3125 2.3438 1.144 2.1051 2.1848 4.2471 3.125 6.4688 0.41211 0.97313 0.81633 1.9435 1.1875 2.9375 0.03791 0.10148 0.05627 0.21081 0.09375 0.3125 0.32958 0.89463 0.6418 1.8082 0.9375 2.7188 0.04063 0.12504 0.08501 0.24967 0.125 0.375 0.11505 0.36082 0.20285 0.73055 0.3125 1.0938 0.2693 0.89198 0.54495 1.7817 0.78125 2.6875 0.06503 0.24927 0.125 0.49972 0.1875 0.75 0.16007 0.6401 0.29417 1.291 0.4375 1.9375 0.17687 0.79784 0.34904 1.599 0.5 2.4062 0.00788 0.04215 0.02345 0.08282 0.03125 0.125 0.01339 0.07232 0.01807 0.14636 0.03125 0.21875 0.16988 0.93277 0.3341 1.868 0.46875 2.8125 0.00897 0.06297 0.02243 0.12448 0.03125 0.1875 0.02893 0.20674 0.03527 0.41772 0.0625 0.625 0.11459 0.87239 0.2285 1.7434 0.3125 2.625 0.10428 1.0956 0.19375 2.2038 0.25 3.3125 0.06319 1.2554 0.09375 2.5415 0.09375 3.8125 0 2.5629-0.12124 5.0662-0.375 7.5625-0.00104 0.01026 0.00104 0.02099 0 0.03125-0.12634 1.2377-0.28232 2.4685-0.46875 3.6875-0.00155 0.01017 0.00155 0.02108 0 0.03125-0.18692 1.2188-0.41078 2.4264-0.65625 3.625-0.00205 0.01001 0.00205 0.02124 0 0.03125-0.12298 0.59923-0.26393 1.1875-0.40625 1.7812-0.13757 0.59506-0.28571 1.1918-0.4375 1.7812-0.00251 0.00978 0.00252 0.02147 0 0.03125-0.30347 1.1766-0.64104 2.3467-1 3.5-0.00296 0.00953 0.00296 0.02172 0 0.03125-0.72181 2.3158-1.5636 4.5999-2.5 6.8125-0.94018 2.2216-1.981 4.3636-3.125 6.4688-0.00439 0.00808 0.00439 0.02317 0 0.03125-1.1404 2.0967-2.3884 4.1251-3.7188 6.0938-0.00488 0.00723 0.00489 0.02402 0 0.03125-0.66325 0.98075-1.3544 1.9284-2.0625 2.875-0.0051 0.00682 0.0051 0.02443 0 0.03125-0.70862 0.9467-1.4668 1.8702-2.2188 2.7812-0.00518 0.00628 0.00519 0.02497 0 0.03125-3.0247 3.6623-6.3992 7.0389-10.062 10.062-3.669 3.0283-7.6338 5.7122-11.844 8-2.1051 1.144-4.2784 2.1848-6.5 3.125s-4.487 1.7762-6.8125 2.5c-1.1628 0.36193-2.3448 0.6945-3.5312 1-4.7458 1.2219-9.6878 1.9932-14.75 2.25-1.2656 0.06422-2.5311 0.09375-3.8125 0.09375s-2.5469-0.02953-3.8125-0.09375c-5.0622-0.25708-10.004-1.0271-14.75-2.25-1.1865-0.3055-2.3684-0.63807-3.5312-1-2.3256-0.72436-4.591-1.5592-6.8125-2.5s-4.3949-1.981-6.5-3.125c-1.0525-0.57237-2.0727-1.1915-3.0938-1.8125s-2.0405-1.2712-3.0312-1.9375-1.9528-1.3493-2.9062-2.0625c-1.9069-1.4264-3.7408-2.9322-5.5-4.5312-0.87406-0.79448-1.7272-1.634-2.5625-2.4688-0.84592-0.84541-1.6642-1.6773-2.4688-2.5625-0.00527-0.0058 0.00527-0.02545 0-0.03125-0.79946-0.88004-1.5867-1.7698-2.3438-2.6875s-1.5056-1.859-2.2188-2.8125-1.3949-1.9178-2.0625-2.9062c-1.3354-1.9761-2.5747-4.0199-3.7188-6.125s-2.1848-4.2471-3.125-6.4688c-0.00376-0.00888 0.00375-0.02237 0-0.03125-0.46628-1.1022-0.92991-2.2152-1.3438-3.3438-0.00338-0.00922 0.00338-0.02202 0-0.03125-0.41674-1.1379-0.79437-2.2744-1.1562-3.4375-0.35411-1.1377-0.66841-2.2778-0.96875-3.4375-0.02151-0.08306-0.04128-0.16683-0.0625-0.25-0.26945-1.0556-0.52632-2.1459-0.75-3.2188-0.05609-0.26964-0.1031-0.5418-0.15625-0.8125-0.1496-0.76056-0.31137-1.5126-0.4375-2.2812-0.06311-0.38498-0.13034-0.7693-0.1875-1.1562-0.0045-0.03042 0.00446-0.06332 0-0.09375-0.14909-1.0167-0.26774-2.0326-0.375-3.0625-0.01852-0.17766-0.04524-0.35322-0.0625-0.53125-0.10206-1.0538-0.16146-2.1208-0.21875-3.1875-0.00454-0.08442-0.027-0.16551-0.03125-0.25-0.06421-1.2656-0.09375-2.5311-0.09375-3.8125s0.02953-2.5469 0.09375-3.8125c0.06126-1.253 0.15495-2.5072 0.28125-3.75 0.00105-0.01032-0.00105-0.02093 0-0.03125 0.12581-1.2378 0.28284-2.4684 0.46875-3.6875 0.00156-0.01018-0.00156-0.02107 0-0.03125 0.1864-1.2189 0.41129-2.4263 0.65625-3.625 0.00204-0.00996-0.00204-0.02129 0-0.03125 0.24545-1.1986 0.54127-2.3856 0.84375-3.5625 0.0025-0.00972-0.00251-0.02153 0-0.03125 0.30296-1.1767 0.64153-2.3466 1-3.5 0.00293-0.00943-0.00294-0.02182 0-0.03125 0.36188-1.1628 0.73951-2.3 1.1562-3.4375 0.31226-0.85229 0.65771-1.6939 1-2.5312 0.03888-0.09504 0.08574-0.18642 0.125-0.28125 0.16826-0.40679 0.32476-0.81563 0.5-1.2188 0.27026-0.62099 0.55708-1.2318 0.84375-1.8438 0.19638-0.41972 0.38979-0.83459 0.59375-1.25 0.44925-0.914 0.92038-1.8247 1.4062-2.7188 0.00432-0.00794-0.00432-0.02331 0-0.03125 0.57195-1.0525 1.1607-2.0727 1.7812-3.0938 0.62508-1.0284 1.2647-2.0364 1.9375-3.0312 0.66286-0.98093 1.3548-1.9282 2.0625-2.875 0.00488-0.00653-0.00489-0.02472 0-0.03125 0.70825-0.94688 1.4672-1.87 2.2188-2.7812 0.00499-0.00605-0.00499-0.0252 0-0.03125 0.75708-0.91726 1.5443-1.808 2.3438-2.6875 2.3986-2.6389 4.9668-5.1036 7.7188-7.375 3.669-3.0283 7.6338-5.7122 11.844-8 2.1051-1.144 4.2784-2.1848 6.5-3.125s4.487-1.7762 6.8125-2.5c1.1628-0.36193 2.3448-0.6945 3.5312-1 4.7458-1.2219 9.6878-1.9932 14.75-2.25 1.2656-0.06422 2.5311-0.09375 3.8125-0.09375z" filter="url(#filter-8)" opacity=".88485" style="fill: rgb(234, 81, 114); visibility: hidden;"/>
      <path d="m430.29 199.6c-2.4076 18.121-17.911 32.125-36.688 32.125-17.823 1e-5 -32.724-12.598-36.25-29.375-13.059 2.8118-25.653 6.8501-37.688 11.969 6.5954 16.77 0.1373 36.313-15.938 45.594-14.925 8.6172-33.388 5.6812-44.938-6.0625-8.1 7.5312-15.638 15.691-22.469 24.406 14.381 11.169 18.672 31.538 9.3125 47.75-8.9272 15.462-27.34 22.073-43.656 16.688-3.9103 12.02-6.7791 24.515-8.4688 37.375 18.742 1.8253 33.406 17.624 33.406 36.844 1e-5 18.105-13.012 33.161-30.188 36.375 1.278 5.759 2.7594 11.429 4.5 17 3.3596-0.88443 6.7951-1.2953 10.188-1.2188 12.508 0.28213 24.573 6.9121 31.281 18.531 9.1309 15.815 5.2637 35.579-8.2812 46.906 7.5576 9.9478 15.979 19.208 25.156 27.656 6.9784-8.4532 17.228-13.199 27.781-13.438 6.5516-0.14778 13.195 1.4549 19.281 4.9688 16.875 9.743 23.171 30.78 14.875 48.062 11.475 4.7507 23.452 8.5195 35.844 11.188 3.5263-16.777 18.427-29.375 36.25-29.375 18.777-3e-5 34.28 14.004 36.688 32.125 11.22-1.5295 22.165-3.9251 32.75-7.1562-5.5376-16.378 1.0517-34.933 16.594-43.906 5.5329-3.1944 11.561-4.7835 17.531-4.9375 12.004-0.3097 23.785 5.2531 31.094 15.5 10.674-8.0782 20.554-17.162 29.5-27.094-12.831-11.436-16.335-30.691-7.4062-46.156 6.7083-11.619 18.774-18.249 31.281-18.531 4.9894-0.11254 10.057 0.79237 14.875 2.7812 4.3232-10.704 7.7884-21.851 10.312-33.344-16.098-4.0234-28.031-18.597-28.031-35.938 3e-5 -18.442 13.506-33.741 31.156-36.562-2.4486-18.837-7.3968-36.882-14.5-53.812-17.277 8.2777-38.293 1.9922-48.031-14.875-9.1042-15.769-5.2665-35.469 8.1875-46.812-8.0768-8.6995-16.877-16.737-26.312-23.969-11.356 13.373-30.989 17.175-46.719 8.0938-14.783-8.5352-21.462-25.745-17.312-41.5-11.275-3.58-22.96-6.2382-34.969-7.875zm-28.562 133.75c1.2814 0 2.5469 0.02953 3.8125 0.09375 5.0622 0.25708 10.004 1.0271 14.75 2.25 1.1865 0.3055 2.3684 0.63807 3.5312 1 2.3256 0.72436 4.591 1.5592 6.8125 2.5 1.1108 0.47009 2.2003 0.9754 3.2812 1.5 0.54047 0.2623 1.092 0.53738 1.625 0.8125 0.0745 0.03819 0.1444 0.08656 0.21875 0.125 0.725 0.37479 1.4454 0.75853 2.1562 1.1562 0.78266 0.43999 1.5467 0.87827 2.3125 1.3438 2.042 1.242 4.0307 2.5728 5.9375 4 0.7151 0.5349 1.4291 1.0967 2.125 1.6562 0.42748 0.34454 0.86163 0.67751 1.2812 1.0312 0.56656 0.47632 1.1043 0.97606 1.6562 1.4688 1.0345 0.92341 2.0519 1.8644 3.0312 2.8438 0.63022 0.63058 1.2368 1.2848 1.8438 1.9375l0.03125 0.03125c0.28068 0.30218 0.56813 0.59944 0.84375 0.90625 0.70735 0.78739 1.3891 1.5891 2.0625 2.4062l0.5625 0.6875c0.56135 0.69675 1.1199 1.4079 1.6562 2.125 0.66839 0.89519 1.3091 1.793 1.9375 2.7188 0.8779 1.2932 1.7339 2.6189 2.5312 3.9688 0.45439 0.76858 0.88533 1.5577 1.3125 2.3438 1.144 2.1051 2.1848 4.2471 3.125 6.4688 0.41211 0.97313 0.81633 1.9435 1.1875 2.9375 0.03791 0.10148 0.05627 0.21081 0.09375 0.3125 0.32958 0.89463 0.6418 1.8082 0.9375 2.7188 0.04063 0.12504 0.08501 0.24967 0.125 0.375 0.11505 0.36082 0.20285 0.73055 0.3125 1.0938 0.2693 0.89198 0.54495 1.7817 0.78125 2.6875 0.06503 0.24927 0.125 0.49972 0.1875 0.75 0.16007 0.6401 0.29417 1.291 0.4375 1.9375 0.17687 0.79784 0.34904 1.599 0.5 2.4062 0.00788 0.04215 0.02345 0.08282 0.03125 0.125 0.01339 0.07232 0.01807 0.14636 0.03125 0.21875 0.16988 0.93277 0.3341 1.868 0.46875 2.8125 0.00897 0.06297 0.02243 0.12448 0.03125 0.1875 0.02893 0.20674 0.03527 0.41772 0.0625 0.625 0.11459 0.87239 0.2285 1.7434 0.3125 2.625 0.10428 1.0956 0.19375 2.2038 0.25 3.3125 0.06319 1.2554 0.09375 2.5415 0.09375 3.8125 0 2.5629-0.12124 5.0662-0.375 7.5625-0.00104 0.01026 0.00104 0.02099 0 0.03125-0.12634 1.2377-0.28232 2.4685-0.46875 3.6875-0.00155 0.01017 0.00155 0.02108 0 0.03125-0.18692 1.2188-0.41078 2.4264-0.65625 3.625-0.00205 0.01001 0.00205 0.02124 0 0.03125-0.12298 0.59923-0.26393 1.1875-0.40625 1.7812-0.13757 0.59506-0.28571 1.1918-0.4375 1.7812-0.00251 0.00978 0.00252 0.02147 0 0.03125-0.30347 1.1766-0.64104 2.3467-1 3.5-0.00296 0.00953 0.00296 0.02172 0 0.03125-0.72181 2.3158-1.5636 4.5999-2.5 6.8125-0.94018 2.2216-1.981 4.3636-3.125 6.4688-0.00439 0.00808 0.00439 0.02317 0 0.03125-1.1404 2.0967-2.3884 4.1251-3.7188 6.0938-0.00488 0.00723 0.00489 0.02402 0 0.03125-0.66325 0.98075-1.3544 1.9284-2.0625 2.875-0.0051 0.00682 0.0051 0.02443 0 0.03125-0.70862 0.9467-1.4668 1.8702-2.2188 2.7812-0.00518 0.00628 0.00519 0.02497 0 0.03125-3.0247 3.6623-6.3992 7.0389-10.062 10.062-3.669 3.0283-7.6338 5.7122-11.844 8-2.1051 1.144-4.2784 2.1848-6.5 3.125s-4.487 1.7762-6.8125 2.5c-1.1628 0.36193-2.3448 0.6945-3.5312 1-4.7458 1.2219-9.6878 1.9932-14.75 2.25-1.2656 0.06422-2.5311 0.09375-3.8125 0.09375s-2.5469-0.02953-3.8125-0.09375c-5.0622-0.25708-10.004-1.0271-14.75-2.25-1.1865-0.3055-2.3684-0.63807-3.5312-1-2.3256-0.72436-4.591-1.5592-6.8125-2.5s-4.3949-1.981-6.5-3.125c-1.0525-0.57237-2.0727-1.1915-3.0938-1.8125s-2.0405-1.2712-3.0312-1.9375-1.9528-1.3493-2.9062-2.0625c-1.9069-1.4264-3.7408-2.9322-5.5-4.5312-0.87406-0.79448-1.7272-1.634-2.5625-2.4688-0.84592-0.84541-1.6642-1.6773-2.4688-2.5625-0.00527-0.0058 0.00527-0.02545 0-0.03125-0.79946-0.88004-1.5867-1.7698-2.3438-2.6875s-1.5056-1.859-2.2188-2.8125-1.3949-1.9178-2.0625-2.9062c-1.3354-1.9761-2.5747-4.0199-3.7188-6.125s-2.1848-4.2471-3.125-6.4688c-0.00376-0.00888 0.00375-0.02237 0-0.03125-0.46628-1.1022-0.92991-2.2152-1.3438-3.3438-0.00338-0.00922 0.00338-0.02202 0-0.03125-0.41674-1.1379-0.79437-2.2744-1.1562-3.4375-0.35411-1.1377-0.66841-2.2778-0.96875-3.4375-0.02151-0.08306-0.04128-0.16683-0.0625-0.25-0.26945-1.0556-0.52632-2.1459-0.75-3.2188-0.05609-0.26964-0.1031-0.5418-0.15625-0.8125-0.1496-0.76056-0.31137-1.5126-0.4375-2.2812-0.06311-0.38498-0.13034-0.7693-0.1875-1.1562-0.0045-0.03042 0.00446-0.06332 0-0.09375-0.14909-1.0167-0.26774-2.0326-0.375-3.0625-0.01852-0.17766-0.04524-0.35322-0.0625-0.53125-0.10206-1.0538-0.16146-2.1208-0.21875-3.1875-0.00454-0.08442-0.027-0.16551-0.03125-0.25-0.06421-1.2656-0.09375-2.5311-0.09375-3.8125s0.02953-2.5469 0.09375-3.8125c0.06126-1.253 0.15495-2.5072 0.28125-3.75 0.00105-0.01032-0.00105-0.02093 0-0.03125 0.12581-1.2378 0.28284-2.4684 0.46875-3.6875 0.00156-0.01018-0.00156-0.02107 0-0.03125 0.1864-1.2189 0.41129-2.4263 0.65625-3.625 0.00204-0.00996-0.00204-0.02129 0-0.03125 0.24545-1.1986 0.54127-2.3856 0.84375-3.5625 0.0025-0.00972-0.00251-0.02153 0-0.03125 0.30296-1.1767 0.64153-2.3466 1-3.5 0.00293-0.00943-0.00294-0.02182 0-0.03125 0.36188-1.1628 0.73951-2.3 1.1562-3.4375 0.31226-0.85229 0.65771-1.6939 1-2.5312 0.03888-0.09504 0.08574-0.18642 0.125-0.28125 0.16826-0.40679 0.32476-0.81563 0.5-1.2188 0.27026-0.62099 0.55708-1.2318 0.84375-1.8438 0.19638-0.41972 0.38979-0.83459 0.59375-1.25 0.44925-0.914 0.92038-1.8247 1.4062-2.7188 0.00432-0.00794-0.00432-0.02331 0-0.03125 0.57195-1.0525 1.1607-2.0727 1.7812-3.0938 0.62508-1.0284 1.2647-2.0364 1.9375-3.0312 0.66286-0.98093 1.3548-1.9282 2.0625-2.875 0.00488-0.00653-0.00489-0.02472 0-0.03125 0.70825-0.94688 1.4672-1.87 2.2188-2.7812 0.00499-0.00605-0.00499-0.0252 0-0.03125 0.75708-0.91726 1.5443-1.808 2.3438-2.6875 2.3986-2.6389 4.9668-5.1036 7.7188-7.375 3.669-3.0283 7.6338-5.7122 11.844-8 2.1051-1.144 4.2784-2.1848 6.5-3.125s4.487-1.7762 6.8125-2.5c1.1628-0.36193 2.3448-0.6945 3.5312-1 4.7458-1.2219 9.6878-1.9932 14.75-2.25 1.2656-0.06422 2.5311-0.09375 3.8125-0.09375z" style="fill: rgb(233, 82, 115);"/>
      <path d="m401.72 236.5c-94.471 1e-5 -171.12 76.685-171.12 171.16s76.654 171.12 171.12 171.12 171.16-76.654 171.16-171.12-76.685-171.16-171.16-171.16zm0.03124 96.844c1.2814 0 2.547 0.02953 3.8125 0.09375 5.0622 0.25708 10.004 1.0271 14.75 2.25 1.1865 0.3055 2.3684 0.63807 3.5313 1 2.3256 0.72436 4.591 1.5592 6.8125 2.5 3.3324 1.4103 6.5305 3.0756 9.5937 4.9375 2.042 1.242 4.0307 2.5728 5.9375 4 2.8604 2.1396 5.5727 4.4789 8.0938 7 5.0417 5.0446 9.3495 10.808 12.781 17.125 1.144 2.1051 2.1848 4.2471 3.125 6.4688 3.2969 7.785 5.3 16.256 5.75 25.125 0.0632 1.2554 0.09376 2.5415 0.09376 3.8125 0 2.5629-0.12125 5.0662-0.375 7.5625-0.00104 0.01026 0.00103 0.02099 0 0.03125-0.12635 1.2377-0.28233 2.4685-0.46876 3.6875-0.00155 0.01017 0.00156 0.02108 0 0.03125-0.18691 1.2188-0.41077 2.4264-0.65624 3.625-0.00205 0.01001 0.00204 0.02124 0 0.03125-0.24597 1.1985-0.54076 2.3858-0.84376 3.5625-0.0025 0.00978 0.00253 0.02147 0 0.03125-0.30347 1.1766-0.64103 2.3467-1 3.5-0.00295 0.00953 0.00296 0.02172 0 0.03125-1.4466 4.641-3.3416 9.0796-5.625 13.281-0.00439 0.00808 0.0044 0.02317 0 0.03125-1.1404 2.0967-2.3884 4.1251-3.7187 6.0938-0.00489 0.00723 0.00488 0.02402 0 0.03125-0.66326 0.98075-1.3544 1.9284-2.0625 2.875-0.00511 0.00682 0.0051 0.02443 0 0.03125-0.70862 0.9467-1.4668 1.8702-2.2188 2.7812-0.00517 0.00628 0.0052 0.02497 0 0.03125-1.5099 1.8281-3.1061 3.5748-4.7812 5.25-0.84542 0.84592-1.7086 1.6642-2.5938 2.4688-0.87961 0.79953-1.7702 1.5866-2.6875 2.3438-3.669 3.0283-7.6338 5.7122-11.844 8-2.1051 1.144-4.2784 2.1848-6.5 3.125s-4.487 1.7762-6.8125 2.5c-1.1628 0.36193-2.3448 0.6945-3.5313 1-4.7458 1.2219-9.6878 1.9932-14.75 2.25-1.2656 0.06422-2.5311 0.09375-3.8125 0.09375s-2.5469-0.02953-3.8125-0.09375c-5.0622-0.25708-10.004-1.0271-14.75-2.25-1.1865-0.3055-2.3684-0.63807-3.5312-1-2.3256-0.72436-4.591-1.5592-6.8125-2.5-3.3324-1.4103-6.5305-3.0756-9.5938-4.9375-2.042-1.242-4.0307-2.5728-5.9375-4-3.8202-2.8575-7.329-6.0684-10.531-9.5938-0.79947-0.88004-1.5867-1.7698-2.3438-2.6875-3.0286-3.6693-5.7119-7.6336-8-11.844-1.144-2.1051-2.1848-4.2471-3.125-6.4688-0.00375-0.00888 0.00376-0.02237 0-0.03125-0.46627-1.1022-0.92991-2.2152-1.3437-3.3438-0.00338-0.00922 0.00337-0.02202 0-0.03125-0.41675-1.1379-0.79438-2.2744-1.1563-3.4375-1.8126-5.8235-2.931-11.942-3.25-18.281-0.06421-1.2656-0.09374-2.5311-0.09374-3.8125 0-2.5735 0.11916-5.0875 0.375-7.5938 0.12581-1.2378 0.28284-2.4684 0.46874-3.6875 0.00156-0.01018-0.00155-0.02107 0-0.03125 0.1864-1.2189 0.4113-2.4263 0.65626-3.625 0.00204-0.00996-0.00205-0.02129 0-0.03125 0.24545-1.1986 0.54126-2.3856 0.84374-3.5625 0.0025-0.00972-0.0025-0.02153 0-0.03125 0.30296-1.1767 0.64153-2.3466 1-3.5 0.00293-0.00943-0.00294-0.02182 0-0.03125 0.36188-1.1628 0.73951-2.3 1.1563-3.4375 1.2535-3.4214 2.7473-6.7101 4.4687-9.875 0.57196-1.0525 1.1607-2.0727 1.7813-3.0938 0.62508-1.0284 1.2647-2.0364 1.9375-3.0312 0.66286-0.98093 1.3548-1.9282 2.0625-2.875 0.00488-0.00653-0.00489-0.02472 0-0.03125 0.70825-0.94688 1.4672-1.87 2.2187-2.7812 5e-3 -0.00605-0.00499-0.0252 0-0.03125 0.75708-0.91726 1.5443-1.808 2.3438-2.6875s1.5971-1.7221 2.4375-2.5625c0.84541-0.84592 1.7086-1.6642 2.5937-2.4688 0.87962-0.79953 1.7702-1.5866 2.6875-2.3438 3.669-3.0283 7.6338-5.7122 11.844-8 2.1051-1.144 4.2784-2.1848 6.5-3.125s4.4869-1.7762 6.8125-2.5c1.1628-0.36193 2.3448-0.6945 3.5312-1 4.7458-1.2219 9.6878-1.9932 14.75-2.25 1.2656-0.06422 2.5311-0.09375 3.8125-0.09375z" opacity=".79394" style="fill: rgb(239, 77, 110);"/>
      <path d="m401.72 258.79c-82.169-1e-5 -148.84 66.706-148.84 148.88s66.675 148.84 148.84 148.84 148.88-66.675 148.88-148.84-66.706-148.88-148.88-148.88zm0.03124 74.562c41.006-1e-5 74.281 33.307 74.281 74.312s-33.276 74.281-74.281 74.281-74.281-33.307-74.281-74.312 33.276-74.281 74.281-74.281z" opacity=".79394" style="fill: rgb(233, 82, 115); visibility: hidden;"/>
      <path transform="matrix(.83697 0 0 .8358 76.256 87.235)" d="m388.88 274.48c-60.099 0-108.88 48.766-108.88 108.86s48.776 108.89 108.88 108.89 108.88-48.766 108.88-108.86v-0.03823c0-60.09-48.776-108.86-108.88-108.86zm0 24.653c46.575 1e-5 84.374 37.74 84.374 84.241s-37.8 84.203-84.374 84.203-84.374-37.74-84.374-84.241 37.8-84.203 84.374-84.203z" filter="url(#filter-7)" opacity=".58788" style="fill: rgb(238, 78, 111); visibility: hidden;"/>
      <path d="m401.73 318.63c-49.059 0-88.875 39.87-88.875 89s39.816 89.031 88.875 89.031 88.875-39.87 88.875-89v-0.03125c0-49.13-39.816-89-88.875-89zm0 20.156c38.019 1e-5 68.875 30.856 68.875 68.875s-30.856 68.844-68.875 68.844-68.875-30.856-68.875-68.875 30.856-68.844 68.875-68.844z" style="fill: rgb(233, 82, 115);"/>
      <path transform="matrix(.58268 .15613 -.16297 .6082 379.74 291.78)" d="m417.44 175.31c-2.4076 18.121-17.911 32.125-36.688 32.125-17.823 1e-5 -32.724-12.598-36.25-29.375-13.059 2.8118-25.653 6.8501-37.688 11.969 6.5954 16.77 0.1373 36.313-15.938 45.594-14.925 8.6172-33.388 5.6812-44.938-6.0625-8.1 7.5312-15.638 15.691-22.469 24.406 14.381 11.169 18.672 31.538 9.3125 47.75-8.9272 15.462-27.34 22.073-43.656 16.688-3.9103 12.02-6.7791 24.515-8.4688 37.375 18.742 1.8253 33.406 17.624 33.406 36.844 1e-5 18.105-13.012 33.161-30.188 36.375 1.278 5.759 2.7594 11.429 4.5 17 3.3596-0.88443 6.7951-1.2953 10.188-1.2188 12.508 0.28213 24.573 6.9121 31.281 18.531 9.1309 15.815 5.2637 35.579-8.2812 46.906 7.5576 9.9478 15.979 19.208 25.156 27.656 6.9784-8.4532 17.228-13.199 27.781-13.438 6.5516-0.14778 13.195 1.4549 19.281 4.9688 16.875 9.743 23.171 30.78 14.875 48.062 11.475 4.7507 23.452 8.5195 35.844 11.188 3.5263-16.777 18.427-29.375 36.25-29.375 18.777-3e-5 34.28 14.004 36.688 32.125 11.22-1.5295 22.165-3.9251 32.75-7.1562-5.5376-16.378 1.0517-34.933 16.594-43.906 5.5329-3.1944 11.561-4.7835 17.531-4.9375 12.004-0.3097 23.785 5.2531 31.094 15.5 10.674-8.0782 20.554-17.162 29.5-27.094-12.831-11.436-16.335-30.691-7.4062-46.156 6.7083-11.619 18.774-18.249 31.281-18.531 4.9894-0.11254 10.057 0.79237 14.875 2.7812 4.3232-10.704 7.7884-21.851 10.312-33.344-16.098-4.0234-28.031-18.597-28.031-35.938 3e-5 -18.442 13.506-33.741 31.156-36.562-2.4486-18.837-7.3968-36.882-14.5-53.812-17.277 8.2777-38.293 1.9922-48.031-14.875-9.1042-15.769-5.2665-35.469 8.1875-46.812-8.0768-8.6995-16.877-16.737-26.312-23.969-11.356 13.373-30.989 17.175-46.719 8.0938-14.783-8.5352-21.462-25.745-17.312-41.5-11.275-3.58-22.96-6.2382-34.969-7.875zm-28.562 133.75c1.2814 0 2.5469 0.02953 3.8125 0.09375 5.0622 0.25708 10.004 1.0271 14.75 2.25 1.1865 0.3055 2.3684 0.63807 3.5312 1 2.3256 0.72436 4.591 1.5592 6.8125 2.5 1.1108 0.47009 2.2003 0.9754 3.2812 1.5 0.54047 0.2623 1.092 0.53738 1.625 0.8125 0.0745 0.03819 0.1444 0.08656 0.21875 0.125 0.725 0.37479 1.4454 0.75853 2.1562 1.1562 0.78266 0.43999 1.5467 0.87827 2.3125 1.3438 2.042 1.242 4.0307 2.5728 5.9375 4 0.7151 0.5349 1.4291 1.0967 2.125 1.6562 0.42748 0.34454 0.86163 0.67751 1.2812 1.0312 0.56656 0.47632 1.1043 0.97606 1.6562 1.4688 1.0345 0.92341 2.0519 1.8644 3.0312 2.8438 0.63022 0.63058 1.2368 1.2848 1.8438 1.9375l0.03125 0.03125c0.28068 0.30218 0.56813 0.59944 0.84375 0.90625 0.70735 0.78739 1.3891 1.5891 2.0625 2.4062l0.5625 0.6875c0.56135 0.69675 1.1199 1.4079 1.6562 2.125 0.66839 0.89519 1.3091 1.793 1.9375 2.7188 0.8779 1.2932 1.7339 2.6189 2.5312 3.9688 0.45439 0.76858 0.88533 1.5577 1.3125 2.3438 1.144 2.1051 2.1848 4.2471 3.125 6.4688 0.41211 0.97313 0.81633 1.9435 1.1875 2.9375 0.03791 0.10148 0.05627 0.21081 0.09375 0.3125 0.32958 0.89463 0.6418 1.8082 0.9375 2.7188 0.04063 0.12504 0.08501 0.24967 0.125 0.375 0.11505 0.36082 0.20285 0.73055 0.3125 1.0938 0.2693 0.89198 0.54495 1.7817 0.78125 2.6875 0.06503 0.24927 0.125 0.49972 0.1875 0.75 0.16007 0.6401 0.29417 1.291 0.4375 1.9375 0.17687 0.79784 0.34904 1.599 0.5 2.4062 0.00788 0.04215 0.02345 0.08282 0.03125 0.125 0.01339 0.07232 0.01807 0.14636 0.03125 0.21875 0.16988 0.93277 0.3341 1.868 0.46875 2.8125 0.00897 0.06297 0.02243 0.12448 0.03125 0.1875 0.02893 0.20674 0.03527 0.41772 0.0625 0.625 0.11459 0.87239 0.2285 1.7434 0.3125 2.625 0.10428 1.0956 0.19375 2.2038 0.25 3.3125 0.06319 1.2554 0.09375 2.5415 0.09375 3.8125 0 2.5629-0.12124 5.0662-0.375 7.5625-0.00104 0.01026 0.00104 0.02099 0 0.03125-0.12634 1.2377-0.28232 2.4685-0.46875 3.6875-0.00155 0.01017 0.00155 0.02108 0 0.03125-0.18692 1.2188-0.41078 2.4264-0.65625 3.625-0.00205 0.01001 0.00205 0.02124 0 0.03125-0.12298 0.59923-0.26393 1.1875-0.40625 1.7812-0.13757 0.59506-0.28571 1.1918-0.4375 1.7812-0.00251 0.00978 0.00252 0.02147 0 0.03125-0.30347 1.1766-0.64104 2.3467-1 3.5-0.00296 0.00953 0.00296 0.02172 0 0.03125-0.72181 2.3158-1.5636 4.5999-2.5 6.8125-0.94018 2.2216-1.981 4.3636-3.125 6.4688-0.00439 0.00808 0.00439 0.02317 0 0.03125-1.1404 2.0967-2.3884 4.1251-3.7188 6.0938-0.00488 0.00723 0.00489 0.02402 0 0.03125-0.66325 0.98075-1.3544 1.9284-2.0625 2.875-0.0051 0.00682 0.0051 0.02443 0 0.03125-0.70862 0.9467-1.4668 1.8702-2.2188 2.7812-0.00518 0.00628 0.00519 0.02497 0 0.03125-3.0247 3.6623-6.3992 7.0389-10.062 10.062-3.669 3.0283-7.6338 5.7122-11.844 8-2.1051 1.144-4.2784 2.1848-6.5 3.125s-4.487 1.7762-6.8125 2.5c-1.1628 0.36193-2.3448 0.6945-3.5312 1-4.7458 1.2219-9.6878 1.9932-14.75 2.25-1.2656 0.06422-2.5311 0.09375-3.8125 0.09375s-2.5469-0.02953-3.8125-0.09375c-5.0622-0.25708-10.004-1.0271-14.75-2.25-1.1865-0.3055-2.3684-0.63807-3.5312-1-2.3256-0.72436-4.591-1.5592-6.8125-2.5s-4.3949-1.981-6.5-3.125c-1.0525-0.57237-2.0727-1.1915-3.0938-1.8125s-2.0405-1.2712-3.0312-1.9375-1.9528-1.3493-2.9062-2.0625c-1.9069-1.4264-3.7408-2.9322-5.5-4.5312-0.87406-0.79448-1.7272-1.634-2.5625-2.4688-0.84592-0.84541-1.6642-1.6773-2.4688-2.5625-0.00527-0.0058 0.00527-0.02545 0-0.03125-0.79946-0.88004-1.5867-1.7698-2.3438-2.6875s-1.5056-1.859-2.2188-2.8125-1.3949-1.9178-2.0625-2.9062c-1.3354-1.9761-2.5747-4.0199-3.7188-6.125s-2.1848-4.2471-3.125-6.4688c-0.00376-0.00888 0.00375-0.02237 0-0.03125-0.46628-1.1022-0.92991-2.2152-1.3438-3.3438-0.00338-0.00922 0.00338-0.02202 0-0.03125-0.41674-1.1379-0.79437-2.2744-1.1562-3.4375-0.35411-1.1377-0.66841-2.2778-0.96875-3.4375-0.02151-0.08306-0.04128-0.16683-0.0625-0.25-0.26945-1.0556-0.52632-2.1459-0.75-3.2188-0.05609-0.26964-0.1031-0.5418-0.15625-0.8125-0.1496-0.76056-0.31137-1.5126-0.4375-2.2812-0.06311-0.38498-0.13034-0.7693-0.1875-1.1562-0.0045-0.03042 0.00446-0.06332 0-0.09375-0.14909-1.0167-0.26774-2.0326-0.375-3.0625-0.01852-0.17766-0.04524-0.35322-0.0625-0.53125-0.10206-1.0538-0.16146-2.1208-0.21875-3.1875-0.00454-0.08442-0.027-0.16551-0.03125-0.25-0.06421-1.2656-0.09375-2.5311-0.09375-3.8125s0.02953-2.5469 0.09375-3.8125c0.06126-1.253 0.15495-2.5072 0.28125-3.75 0.00105-0.01032-0.00105-0.02093 0-0.03125 0.12581-1.2378 0.28284-2.4684 0.46875-3.6875 0.00156-0.01018-0.00156-0.02107 0-0.03125 0.1864-1.2189 0.41129-2.4263 0.65625-3.625 0.00204-0.00996-0.00204-0.02129 0-0.03125 0.24545-1.1986 0.54127-2.3856 0.84375-3.5625 0.0025-0.00972-0.00251-0.02153 0-0.03125 0.30296-1.1767 0.64153-2.3466 1-3.5 0.00293-0.00943-0.00294-0.02182 0-0.03125 0.36188-1.1628 0.73951-2.3 1.1562-3.4375 0.31226-0.85229 0.65771-1.6939 1-2.5312 0.03888-0.09504 0.08574-0.18642 0.125-0.28125 0.16826-0.40679 0.32476-0.81563 0.5-1.2188 0.27026-0.62099 0.55708-1.2318 0.84375-1.8438 0.19638-0.41972 0.38979-0.83459 0.59375-1.25 0.44925-0.914 0.92038-1.8247 1.4062-2.7188 0.00432-0.00794-0.00432-0.02331 0-0.03125 0.57195-1.0525 1.1607-2.0727 1.7812-3.0938 0.62508-1.0284 1.2647-2.0364 1.9375-3.0312 0.66286-0.98093 1.3548-1.9282 2.0625-2.875 0.00488-0.00653-0.00489-0.02472 0-0.03125 0.70825-0.94688 1.4672-1.87 2.2188-2.7812 0.00499-0.00605-0.00499-0.0252 0-0.03125 0.75708-0.91726 1.5443-1.808 2.3438-2.6875 2.3986-2.6389 4.9668-5.1036 7.7188-7.375 3.669-3.0283 7.6338-5.7122 11.844-8 2.1051-1.144 4.2784-2.1848 6.5-3.125s4.487-1.7762 6.8125-2.5c1.1628-0.36193 2.3448-0.6945 3.5312-1 4.7458-1.2219 9.6878-1.9932 14.75-2.25 1.2656-0.06422 2.5311-0.09375 3.8125-0.09375z" filter="url(#filter-8)" opacity=".88485" style="fill: rgb(94, 202, 230); visibility: hidden;"/>
      <path d="m594.96114,464.34674c-4.40267,10.57859-16.09567,16.53254-27.50617,13.4751-10.83067-2.90207-17.84248-12.9552-17.26373-23.68672-8.39209-.42413-16.70045-.02994-24.84409,1.10935 1.28752,11.22698-5.80728,22.0068-17.08139,25.00805-10.46802,2.78665-21.21127-1.99713-26.32485-10.98757-6.14404,3.24058-12.04819,6.95304-17.61336,11.1173 6.92751,9.10347 6.23104,22.13412-2.08687,30.42496-7.93333,7.90754-20.1952,8.91155-29.23676,2.99427-4.32622,6.64055-8.09638,13.73769-11.20941,21.24843 11.09345,4.15691 17.44183,16.10948 14.324,27.74537-2.93696,10.96091-13.28683,17.95719-24.24557,17.10652-.15763,3.6947-.17717,7.36872-.02313,11.02481 2.18509.0116 4.33948.32228 6.38861.92099 7.55504,2.20744 13.81156,8.18593 16.00331,16.31268 2.98326,11.06157-2.57298,22.3973-12.64163,27.04933 2.979,7.25318 6.59409,14.23093 10.80091,20.83976 5.61201-3.98142 12.61059-5.18589 19.06238-3.61161 4.00536.97734 7.78255,3.02936 10.9111,6.14776 8.67462,8.64643 9.08785,22.40781 1.24274,31.5199 6.20237,4.74457 12.86987,8.97661 19.96723,12.60958 4.86455-9.58315 15.96352-14.78352 26.7942-11.88145 11.41049,3.05741 18.55996,14.0602 17.08348,25.42287 7.06669.90106 14.10619,1.23279 21.06292,1.00022-.70829-10.81725 6.30597-20.97776 17.20644-23.87955 3.88055-1.03303 7.8013-1.01355 11.45463-.1346 7.34499,1.76713 13.60196,7.05327 16.38111,14.44698 7.79716-3.15257 15.27483-7.04335 22.32217-11.59944-5.94212-9.01273-4.94824-21.2405 2.98676-29.14968 5.96149-5.94212 14.36904-7.99138 22.01562-6.12555 3.05031.7443 5.98311,2.11732 8.5883,4.10594 4.36355-5.77628 8.27773-11.961 11.6759-18.50763-9.12973-5.05702-14.01759-15.82353-11.20466-26.3215 2.99165-11.16494 13.68132-18.22832 24.86469-17.06229 1.5677-11.80275 1.48804-23.53344-.08208-34.93999-11.84225,2.19816-23.59364-5.02923-26.77533-16.82655-2.97452-11.02919 2.55342-22.33129 12.56946-27.00785-3.49697-6.58195-7.54117-12.8807-12.10176-18.79556-9.07051,6.24699-21.61809,5.35221-29.70374-2.70719-7.59926-7.57459-8.86566-19.08115-3.78857-27.94377-6.27108-4.0033-12.94087-7.51539-19.97286-10.46167zm-39.05431,76.32347c.77872.20866 1.54297.4326 2.30163.67755 3.03457.97993 5.91289,2.25083 8.5985,3.76395 .67147.37816 1.33578.77196 1.98371,1.18042 1.29572.81721 2.53699,1.69152 3.73437,2.62283 .59877.46547 1.17889.9488 1.75067,1.44241 .28589.24681.57643.50316.8557.75651 .03908.03524.07371.07591.11266.11129 .37978.34496.75532.69459 1.12277,1.05112 .40425.39381.79745.78356 1.18731,1.19007 1.03947,1.08445 2.03208,2.21393 2.95932,3.38848 .34779.44027.69055.89664 1.02266,1.34874 .2039.27819.41371.55047.61133.83295 .26702.38063.51274.77074.76823,1.1589 .47886.72749.9445,1.46289 1.38077,2.21523 .28068.48439.54314.97922.80613,1.47322l.01392.02401c.12155.22865.24801.45541.36573.68604 .30212.59188.58638,1.18825.86303,1.79262l.23031.50782c.2281.51323.45214,1.03472.66177,1.5562 .26096.65079.50464,1.29868.73637,1.96146 .32372.92586.62882,1.86786.89441,2.81491 .15146.5393.28532,1.08723.4174,1.63266 .35374,1.46075.63873,2.92704.84969,4.42513 .09257.65625.1808,1.30954.24511,1.97177 .00657.06761 0,.1368.00628.20446 .05515.59528.09668,1.19924.12868,1.79863 .0044.08231.01115.165.01513.24738 .01138.23718.00476.47532.01247.71306 .01896.58387.04214,1.16741.03879,1.75426-.00091.16151-.0051.32289-.00772.4846-.00656.41359-.03065.82946-.04843,1.24423-.02194.51183-.04729,1.02491-.0865,1.5382-.00205.02679.00082.05395-.00128.08076-.0036.04597-.01276.09156-.0165.13753-.04808.59237-.09999,1.1853-.17139,1.77906-.00476.03958-.00657.07901-.01143.1186-.01595.12987-.04633.25863-.06341.38856-.07187.54682-.14395,1.09269-.23592,1.64011-.11436.68029-.23977,1.36579-.38543,2.04614-.16525.77034-.35531,1.55392-.5615,2.32341-.41574,1.5516-.89552,3.04744-1.45467,4.5174l-.00507.01891c-.27755.72873-.57201,1.44852-.88305,2.15615l-.00507.01891c-.31131.70745-.64324,1.40211-.98685,2.08778l-.00507.01892c-.17194.34276-.35302.67596-.53583,1.01225s-.36695.67498-.55482,1.00716l-.00507.01891c-.37528.66291-.77025,1.31636-1.17547,1.95613l-.00507.01891c-.81431,1.2845-1.69641,2.53025-2.62436,3.71732s-1.9117,2.31926-2.94842,3.40743c-.00397.00419-.00109.01475-.00507.01893-1.03316,1.08367-2.12058,2.10848-3.2484,3.08371-.00414.00359-.00092.01535-.00507.01892-.56215.48577-1.13587.94692-1.71975,1.40474-.00421.0033-.00086.01561-.00507.01892-.5842.45775-1.19475.89341-1.7995,1.32253-.00417.00296-.0009.01596-.00507.01892-2.43222,1.72468-5.03064,3.21945-7.74728,4.45349-2.7209,1.23597-5.56565,2.21523-8.49516,2.91479-1.46484.34985-2.95438.62608-4.45696.83353s-3.01483.34474-4.54547.40425c-.76535.02977-1.53757.03866-2.30815.03041-3.08221-.03303-6.21056-.37079-9.3285-1.03957-.7795-.1672-1.55333-.35538-2.33205-.56404s-1.54297-.4326-2.30163-.67755c-3.03457-.97993-5.91289-2.25083-8.59851-3.76395-.67146-.37816-1.33577-.77196-1.98371-1.18042-1.29572-.81721-2.53698-1.69152-3.73436-2.62282s-2.34941-1.91495-3.44308-2.95034c-.54675-.51789-1.06632-1.05884-1.58604-1.60107s-1.03378-1.10184-1.52777-1.66657c-.49213-.56513-.96781-1.13487-1.43154-1.72191-.92745-1.17408-1.79758-2.3843-2.60726-3.63886-.40228-.62331-.78454-1.27047-1.15674-1.91188-.37692-.64956-.73921-1.28645-1.08456-1.95336-.00226-.00438.00734-.01455.00508-.01892-.34308-.66297-.67713-1.32981-.98832-2.00869s-.61335-1.37064-.89208-2.06402-.53655-1.38819-.78192-2.09533c-.49095-1.41381-.91253-2.85295-1.26626-4.3137s-.63873-2.92704-.84969-4.42513c-.00084-.00599.00591-.01293.00507-.01892-.10455-.74323-.20576-1.49251-.27417-2.24316-.00055-.00614.00563-.01278.00507-.01892-.06866-.75675-.11377-1.50632-.14501-2.26939-.03063-.74645-.03668-1.48786-.03107-2.23885 .0004-.05379.00198-.10773.00258-.16154 .0075-.68297.02826-1.38486.06637-2.0708 .00965-.17238.02523-.34481.03685-.51735 .03247-.48481.05615-.96644.1042-1.45234 .02409-.24335.04559-.48697.07363-.73054 .0022-.01915.01297-.03761.0152-.05676 .07433-.63981.16703-1.27418.26891-1.91515 .01757-.11058.02981-.22121.04821-.33181 .10892-.65458.24592-1.31027.38414-1.96537 .01094-.05186.01044-.1046.02157-.15645 .16628-.77668.35362-1.54761.56149-2.32341s.43112-1.53715.67544-2.29288c.24049-.74862.50088-1.49267.77924-2.22451l.00507-.01892c.27725-.72889.57231-1.44835.88305-2.15614l.00507-.01892c.31101-.70762.64352-1.40194.98685-2.08778l.00507-.01892c.34359-.68569.71592-1.35617 1.09065-2.0194l.00507-.01892c.375-.66308.77051-1.31618 1.17546-1.95612l.00508-.01892c.40853-.64505.82249-1.27202 1.26027-1.89285 .32803-.46514.67448-.9184 1.01833-1.36962l.12158-.14992c.16824-.21888.32966-.44092.50155-.65644 .26497-.33195.53835-.65501.81184-.97885l.56359-.66008c.42128-.4802.85532-.95484 1.29561-1.41699 .00392-.00411.00116-.01482.00507-.01893 .51831-.54406 1.04158-1.06586 1.58433-1.58296 .54668-.52081 1.09889-1.02692 1.66915-1.51967 .56193-.48594 1.13607-.94675 1.71975-1.40474 .00402-.00315.00104-.01575.00507-.01892 .584-.45792 1.19493-.89323 1.7995-1.32253 .00401-.00285.00105-.01606.00507-.01891 .60887-.43205 1.23174-.84311 1.86025-1.24542 1.8857-1.20705 3.84619-2.28102 5.88703-3.20808 2.7209-1.23597 5.56565-2.21523 8.49516-2.91479 1.46484-.34985 2.95438-.62608 4.45696-.83352s3.01483-.34475 4.54547-.40426c.76535-.02977 1.53757-.03866 2.30815-.03041 3.0822.03303 6.21056.37079 9.3285,1.03957 .77949.1672 1.55333.35538 2.33205.56404z" style="fill: rgb(94, 202, 230);"/>
      <path d="m571.61 482.04c-57.41-15.383-116.43 18.562-131.76 75.756s18.822 116.08 76.232 131.47 116.45-18.538 131.77-75.732-18.836-116.11-76.246-131.49zm-15.691 58.636c0.77872 0.20866 1.543 0.43261 2.3016 0.67755 3.0346 0.97993 5.9129 2.2508 8.5985 3.764 0.67147 0.37815 1.3358 0.77196 1.9837 1.1804 1.2957 0.81721 2.537 1.6915 3.7344 2.6228 1.7963 1.3964 3.4696 2.9254 5.0291 4.5514 1.0394 1.0844 2.0321 2.2139 2.9593 3.3885 1.3912 1.7611 2.6599 3.619 3.783 5.5558 2.2455 3.8751 3.9284 8.0654 4.9891 12.449 0.35372 1.4608 0.63873 2.927 0.84968 4.4251 0.74059 5.25 0.58378 10.704-0.58154 16.147-0.16525 0.77034-0.35531 1.5539-0.56149 2.3234-0.41575 1.5516-0.89554 3.0474-1.4547 4.5174l-0.00506 0.01892c-0.27756 0.72872-0.57202 1.4485-0.88306 2.1562l-0.00506 0.01891c-0.3113 0.70744-0.64324 1.4021-0.98685 2.0878l-0.00507 0.01893c-0.34389 0.68551-0.71564 1.3563-1.0907 2.0194l-0.00507 0.01892c-0.37528 0.6629-0.77023 1.3164-1.1755 1.9561l-0.00507 0.01891c-1.632 2.5742-3.5036 4.9528-5.5728 7.1248-0.00398 0.00418-0.00109 0.01475-0.00507 0.01892-1.0332 1.0837-2.1206 2.1085-3.2484 3.0837-0.00415 0.00359-9.3e-4 0.01534-0.00507 0.01892-0.56216 0.48577-1.1359 0.94692-1.7198 1.4047-0.00421 0.0033-8.6e-4 0.01562-0.00507 0.01892-0.5842 0.45776-1.1948 0.89341-1.7995 1.3225-0.00417 0.00296-9e-4 0.01596-0.00507 0.01892-1.2141 0.86092-2.4675 1.6585-3.7572 2.3999-0.65098 0.37448-1.3082 0.72931-1.9767 1.0723-0.66423 0.34082-1.3331 0.67231-2.0134 0.98133-2.7209 1.236-5.5656 2.2152-8.4952 2.9148-1.4648 0.34984-2.9544 0.62607-4.457 0.83353s-3.0148 0.34473-4.5455 0.40424c-0.76535 0.02977-1.5376 0.03866-2.3082 0.03042-3.0822-0.03303-6.2106-0.3708-9.3285-1.0396-0.77948-0.16719-1.5533-0.35538-2.332-0.56404s-1.543-0.4326-2.3016-0.67755c-3.0346-0.97993-5.9129-2.2508-8.5985-3.764-0.67146-0.37815-1.3358-0.77196-1.9837-1.1804-1.2957-0.81722-2.537-1.6915-3.7344-2.6228-1.7963-1.3964-3.4696-2.9254-5.0291-4.5514-1.0394-1.0844-2.0321-2.2139-2.9593-3.3885-1.858-2.352-3.4693-4.8673-4.8435-7.523-0.34307-0.66296-0.67712-1.3298-0.98832-2.0087-1.2452-2.7146-2.2328-5.5516-2.9403-8.473-0.35372-1.4607-0.63873-2.927-0.84968-4.4251-8.4e-4 -0.00599 0.0059-0.01293 0.00507-0.01893-0.10455-0.74323-0.20577-1.4925-0.27416-2.2432-5.6e-4 -0.00613 0.00562-0.01278 0.00506-0.01891-0.06866-0.75676-0.11378-1.5063-0.14502-2.2694-0.15678-3.8208 0.15619-7.7074 0.99059-11.597 0.16629-0.77667 0.35362-1.5476 0.5615-2.3234 0.41747-1.558 0.89771-3.0606 1.4598-4.5363 0.27725-0.72889 0.5723-1.4484 0.88303-2.1561l0.00507-0.01892c0.31102-0.70762 0.64355-1.4019 0.98686-2.0878l0.00507-0.01893c0.3436-0.68568 0.71592-1.3562 1.0906-2.0194l0.00507-0.01892c0.375-0.66307 0.77051-1.3162 1.1755-1.9561l0.00507-0.01892c0.40854-0.64504 0.8225-1.272 1.2603-1.8928 1.3168-1.8672 2.758-3.6151 4.3176-5.2508 0.51831-0.54406 1.0416-1.0659 1.5843-1.583 0.54668-0.52082 1.0989-1.0269 1.6691-1.5197 0.56195-0.48594 1.1361-0.94674 1.7198-1.4047 0.00402-0.00316 0.00103-0.01576 0.00507-0.01892 0.584-0.45792 1.1949-0.89324 1.7995-1.3225 0.00402-0.00285 0.00106-0.01607 0.00507-0.01892 0.60887-0.43205 1.2317-0.84311 1.8603-1.2454s1.2499-0.78255 1.8969-1.1545 1.3083-0.7293 1.9767-1.0723c0.66425-0.34082 1.3331-0.67231 2.0134-0.98133 2.7209-1.236 5.5656-2.2152 8.4952-2.9148 1.4648-0.34984 2.9544-0.62607 4.457-0.83352s3.0148-0.34475 4.5455-0.40425c0.76535-0.02977 1.5376-0.03866 2.3081-0.03042 3.0822 0.03303 6.2106 0.37079 9.3285 1.0396 0.77949 0.16719 1.5533 0.35538 2.332 0.56403z" opacity=".79394" style="fill: rgb(94, 202, 230);"/>
      <path d="m567.99 495.53c-49.934-13.38-101.27 16.148-114.6 65.895s16.372 100.97 66.306 114.35 101.29-16.124 114.62-65.871-16.386-100.99-66.32-114.37zm-12.077 45.146c24.919 6.677 39.737 32.26 33.085 57.085s-32.271 39.553-57.19 32.876-39.737-32.26-33.085-57.085 32.271-39.553 57.19-32.876z" opacity=".79394" style="fill: rgb(94, 202, 230); visibility: hidden;"/>
      <path transform="matrix(.50862 .13628 -.13558 .506 398.04 338.67)" d="m388.88 274.48c-60.099 0-108.88 48.766-108.88 108.86s48.776 108.89 108.88 108.89 108.88-48.766 108.88-108.86v-0.03823c0-60.09-48.776-108.86-108.88-108.86zm0 24.653c46.575 1e-5 84.374 37.74 84.374 84.241s-37.8 84.203-84.374 84.203-84.374-37.74-84.374-84.241 37.8-84.203 84.374-84.203z" filter="url(#filter-7)" opacity=".58788" style="fill: rgb(94, 202, 230); visibility: hidden;"/>
      <path d="m558.29 531.76c-29.813-7.9883-60.477 9.6666-68.447 39.41s9.7533 60.384 39.566 68.373 60.477-9.6665 68.447-39.41l0.00507-0.01893c7.9698-29.744-9.7584-60.365-39.571-68.354zm-3.2698 12.203c23.104 6.1907 36.85 29.896 30.682 52.913s-29.919 36.655-53.023 30.464-36.85-29.896-30.682-52.913 29.919-36.655 53.023-30.464z" style="fill: rgb(94, 202, 230);"/>
    </g>
  </g>
  <g transform="matrix(0.175831, 0, 0, 0.175831, 28.261728, 3.219033)" style="">
    <g transform="translate(0 -1002.4)">
      <g fill="#45d6a9">
        <path d="m25 1003.6c-13.112 0-23.781 10.667-23.781 23.779 1.49e-5 13.112 10.669 23.781 23.781 23.781s23.781-10.669 23.781-23.781c-1.5e-5 -13.112-10.669-23.779-23.781-23.779zm0 3.6114c11.16 0 20.168 9.0078 20.168 20.168-1.3e-5 11.16-9.0078 20.17-20.168 20.17-11.16 1e-4 -20.168-9.0097-20.168-20.17 1.27e-5 -11.16 9.0078-20.168 20.168-20.168z" color="#000000" color-rendering="auto" image-rendering="auto" shape-rendering="auto" solid-color="#000000" style="isolation: auto; mix-blend-mode: normal; text-decoration-color: rgb(0, 0, 0); text-decoration-line: none; text-decoration-style: solid; text-indent: 0px; text-transform: none; white-space: normal; fill: rgb(51, 193, 148);"/>
        <g transform="matrix(.61243 0 0 .61243 7.0239 405.45)">
          <path transform="matrix(.91761 0 0 .91761 2.0598 1003)" d="m10.641 5.4531c-0.59364 0-1.1877 0.22872-1.6426 0.68359l-2.8613 2.8613c-0.90975 0.90975-0.90975 2.3735 0 3.2832l12.719 12.719 6.1445 6.1445 6.1445-6.1445 22.204-22.204c0.90975-0.90975 0.90975-2.3735 0-3.2832l-2.8613-2.8613c-0.90975-0.90975-2.3735-0.90975-3.2832 0l-22.204 22.204-12.719-12.719c-0.45487-0.45487-1.047-0.68359-1.6406-0.68359z" style="fill: rgb(51, 193, 148);"/>
        </g>
      </g>
    </g>
  </g>
</svg>